# xmcd
#
# Track frame offsets: 
#        150
#        11453
#        26156
#        37079
#        51883
#        69004
#        82482
#        94921
#        107337
#        118254
#
# Disc length: 1759 seconds
#
# Revision: 0
# Processed by: cddbd v1.5.1PL2 Copyright (c) Steve Scherf et al.
# Submitted via: ExactAudioCopy v0.95b4
#
DISCID=8206dd0a
DTITLE=Various Artist - A Town South of Bakersfield Volume II
DYEAR=1988
DGENRE=
TTITLE0=Jim Lauderdale - What Am I Waiting For
TTITLE1=Crazy Hearts - We Get Along Just Fine (When We're Apart)
TTITLE2=Re Winkler, Anne Harvey and Ree Van Vleck - Mister Love
TTITLE3=Candye Kane - Tell Me a Lie
TTITLE4=Jeffrey Steele - Driftin' Man
TTITLE5=Jann Brown - Louisville
TTITLE6=Dave Durham - Let There Be Love
TTITLE7=Lucinda Williams - Dark Side of Life
TTITLE8=Pete and The Bigshots - Venice Skyline Rag
TTITLE9=James Intveld - Somewhere Down the Road
EXTD=
EXTT0=
EXTT1=
EXTT2=
EXTT3=
EXTT4=
EXTT5=
EXTT6=
EXTT7=
EXTT8=
EXTT9=
PLAYORDER=
